<svg width="345" height="113" viewBox="0 0 345 113" fill="none" xmlns="http://www.w3.org/2000/svg">
<rect width="345" height="113" fill="white"/>
<path d="M112.813 82C108.905 81.9047 105.378 81.2135 102.231 79.9265C99.1332 78.5918 96.44 76.8043 94.152 74.564C91.9117 72.276 90.1718 69.6305 88.9325 66.6275C87.7408 63.6245 87.145 60.407 87.145 56.975C87.145 53.543 87.7408 50.3255 88.9325 47.3225C90.1718 44.3195 91.9117 41.6978 94.152 39.4575C96.44 37.1695 99.1332 35.3582 102.231 34.0235C105.378 32.6888 108.905 31.9977 112.813 31.95H119.892V39.4575H113.028C110.502 39.5052 108.19 39.9818 106.092 40.8875C103.995 41.7455 102.16 42.961 100.587 44.534C99.0617 46.107 97.87 47.966 97.012 50.111C96.154 52.2083 95.725 54.4963 95.725 56.975C95.725 59.4537 96.154 61.7655 97.012 63.9105C97.87 66.0078 99.0617 67.843 100.587 69.416C102.16 70.989 103.995 72.2283 106.092 73.134C108.19 73.992 110.502 74.421 113.028 74.421H119.892V82H112.813Z" fill="black"/>
<path d="M140.296 82C137.531 82 135.052 81.3565 132.86 80.0695C130.667 78.7348 128.927 76.9712 127.64 74.7785C126.401 72.5382 125.781 70.0833 125.781 67.414C125.781 65.3167 126.258 63.3385 127.211 61.4795C128.212 59.5728 129.595 57.976 131.358 56.689C129.595 55.402 128.236 53.8528 127.283 52.0415C126.329 50.1825 125.853 48.252 125.853 46.25C125.853 43.5807 126.472 41.1735 127.712 39.0285C128.999 36.8835 130.715 35.1675 132.86 33.8805C135.005 32.5935 137.388 31.95 140.01 31.95H160.173V39.529H140.939C139.748 39.529 138.651 39.8388 137.65 40.4585C136.649 41.0305 135.839 41.817 135.219 42.818C134.647 43.819 134.361 44.963 134.361 46.25C134.361 47.394 134.671 48.4665 135.291 49.4675C135.91 50.4685 136.721 51.2788 137.722 51.8985C138.723 52.4705 139.843 52.7565 141.082 52.7565H157.67V60.3355H141.511C140.081 60.3355 138.818 60.6692 137.722 61.3365C136.625 62.0038 135.767 62.8857 135.148 63.982C134.576 65.0307 134.29 66.1985 134.29 67.4855C134.29 68.7248 134.576 69.8927 135.148 70.989C135.767 72.0377 136.602 72.8957 137.65 73.563C138.747 74.1827 139.986 74.4925 141.368 74.4925H160.173V82H140.296Z" fill="black"/>
<path d="M227.435 82.854C226.434 82.854 225.552 82.4727 224.79 81.71C224.027 80.9473 223.645 80.0655 223.645 79.0645C223.645 78.0158 224.027 77.134 224.79 76.419C225.552 75.6563 226.434 75.275 227.435 75.275C228.484 75.275 229.366 75.6563 230.081 76.419C230.843 77.134 231.225 78.0158 231.225 79.0645C231.225 79.7318 231.034 80.3753 230.652 80.995C230.319 81.567 229.866 82.0198 229.294 82.3535C228.722 82.6872 228.102 82.854 227.435 82.854Z" fill="black"/>
<path d="M255.226 83.426C251.889 83.426 248.815 82.6872 246.003 81.2095C243.19 79.7318 240.95 77.563 239.282 74.703C237.613 71.843 236.779 68.3872 236.779 64.3355V30.3015H241.784V53.539H241.927C242.737 51.9183 243.858 50.4883 245.288 49.249C246.718 47.962 248.338 46.961 250.15 46.246C251.961 45.531 253.868 45.1735 255.87 45.1735C259.159 45.1735 262.138 45.9362 264.807 47.4615C267.524 48.9868 269.693 51.1557 271.314 53.968C272.934 56.7327 273.745 60.0693 273.745 63.978C273.745 67.0287 273.268 69.7695 272.315 72.2005C271.361 74.5838 270.027 76.6097 268.311 78.278C266.642 79.9463 264.688 81.2333 262.448 82.139C260.207 82.997 257.8 83.426 255.226 83.426ZM255.155 79.0645C257.586 79.0645 259.826 78.4925 261.876 77.3485C263.925 76.1568 265.57 74.4647 266.809 72.272C268.048 70.0317 268.668 67.3623 268.668 64.264C268.668 61.261 268.048 58.6632 266.809 56.4705C265.57 54.2302 263.925 52.5142 261.876 51.3225C259.874 50.1308 257.681 49.535 255.298 49.535C252.914 49.535 250.698 50.1308 248.648 51.3225C246.598 52.4665 244.954 54.1348 243.715 56.3275C242.475 58.5202 241.856 61.1895 241.856 64.3355C241.856 67.4815 242.451 70.1508 243.643 72.3435C244.882 74.5362 246.503 76.2045 248.505 77.3485C250.555 78.4925 252.771 79.0645 255.155 79.0645Z" fill="black"/>
<path d="M298.527 84.3555C294.856 84.3555 291.71 83.4975 289.089 81.7815C286.467 80.0655 284.465 77.7775 283.083 74.9175C281.7 72.0098 281.009 68.7685 281.009 65.1935C281.009 61.5708 281.772 58.3295 283.297 55.4695C284.823 52.5618 286.991 50.2738 289.804 48.6055C292.664 46.9372 296.048 46.103 299.957 46.103C303.722 46.103 306.964 46.9372 309.681 48.6055C312.445 50.2738 314.567 52.5142 316.044 55.3265C317.57 58.1388 318.332 61.3087 318.332 64.836V83.426H313.399V75.275H313.184C312.517 76.705 311.516 78.135 310.181 79.565C308.847 80.9473 307.202 82.0913 305.248 82.997C303.341 83.9027 301.101 84.3555 298.527 84.3555ZM299.599 80.0655C302.269 80.0655 304.628 79.422 306.678 78.135C308.727 76.8003 310.348 75.0128 311.54 72.7725C312.731 70.4845 313.303 67.9105 313.256 65.0505C313.256 62.2382 312.708 59.7357 311.611 57.543C310.515 55.3503 308.966 53.6105 306.964 52.3235C304.962 51.0365 302.578 50.393 299.814 50.393C296.954 50.393 294.499 51.0603 292.449 52.395C290.4 53.682 288.827 55.4695 287.73 57.7575C286.634 59.9978 286.086 62.548 286.086 65.408C286.086 68.0773 286.61 70.5322 287.659 72.7725C288.707 75.0128 290.233 76.8003 292.235 78.135C294.284 79.422 296.739 80.0655 299.599 80.0655Z" fill="black"/>
<path d="M183.371 32H167L185.796 56.9607L167 81.9214H183.371L202.166 56.9607L183.371 32ZM220.962 32H204.591L199.426 38.8852L207.603 49.7231L220.962 32ZM199.426 75.0615L204.591 81.9214H220.962L207.603 64.1983L199.426 75.0615Z" fill="black"/>
<path d="M72.8594 65.0161C74.5627 61.0334 74.9547 56.6255 73.9805 52.4121C73.0063 48.1987 70.7148 44.3918 67.4281 41.5265C64.1414 38.6612 60.0249 36.8817 55.6574 36.4381C51.2898 35.9945 46.8908 36.9092 43.0788 39.0536L40.4748 34.5663C44.4586 32.3256 48.9698 31.1521 53.5583 31.163C58.1469 31.1739 62.6523 32.3687 66.625 34.6283C78.4113 41.3243 82.9263 55.6618 77.4322 67.6175L80.9549 69.617L70.0218 75.3365L69.5887 63.1587L72.8594 65.0161ZM34.1407 48.9839C32.4374 52.9666 32.0453 57.3745 33.0196 61.5879C33.9938 65.8013 36.2853 69.6082 39.572 72.4735C42.8586 75.3388 46.9751 77.1183 51.3427 77.5619C55.7103 78.0054 60.1093 77.0908 63.9213 74.9464L66.5253 79.4337C62.5415 81.6744 58.0303 82.8479 53.4418 82.837C48.8532 82.8261 44.3478 81.6313 40.375 79.3717C28.5888 72.6757 24.0738 58.3382 29.5679 46.3825L26.0425 44.3856L36.9757 38.6661L37.4088 50.8439L34.138 48.9865L34.1407 48.9839ZM57.2144 64.3057L49.783 57L42.3595 64.3057L38.6478 60.6528L49.7857 49.6943L57.2118 57L64.6379 49.6943L68.3497 53.3472L57.2118 64.3057H57.2144Z" fill="black"/>
</svg>
